<?xml version="1.0" encoding="utf-8"?>
<!-- Generator: Adobe Illustrator 24.0.1, SVG Export Plug-In . SVG Version: 6.00 Build 0)  -->
<svg version="1.1" id="new_gradient" xmlns="http://www.w3.org/2000/svg" xmlns:xlink="http://www.w3.org/1999/xlink" x="0px"
	 y="0px" viewBox="0 0 91 106" style="enable-background:new 0 0 91 106;" xml:space="preserve">
<style type="text/css">
	.st0{fill:#00C08B;}
</style>
<g>
	<path class="st0" d="M69.3,101.3c26.7-26,27.3-68.7,1.3-95.4c-0.4-0.4-0.8-0.9-1.3-1.3L64.6,0L34.3,29.6c-12.3,12-13.2,31.5-2,44.6
		l9.6-9.4c-6-7.8-5.2-18.9,1.9-25.8l20.4-20c15.9,19.9,15.9,48.2,0,68l-5.5-5.4L49.3,91l15.3,15L69.3,101.3z"/>
	<path class="st0" d="M56.7,76.4c12.3-12,13.2-31.5,2-44.5l-9.6,9.4c6,7.8,5.1,18.9-2,25.8L26.7,87c-16-19.9-16-48.2,0-68l5.7,5.6
		l9.5-9.4L26.5,0l-4.8,4.7C8.5,17.6,1.3,34.7,1.3,53s7.3,35.4,20.4,48.3l4.8,4.7L56.7,76.4z"/>
</g>
</svg>
